<?xml version="1.0" encoding="UTF-8"?>
<svg version="1.1" xmlns="http://www.w3.org/2000/svg" width="1094" height="228">
<path d="M0 0 C0.82638977 -0.00807175 1.65277954 -0.01614349 2.50421143 -0.02445984 C4.25604148 -0.03830246 6.00789852 -0.04902382 7.75976562 -0.05688477 C10.42891196 -0.07406292 13.09680831 -0.11794164 15.765625 -0.16210938 C17.4687409 -0.17223957 19.17186733 -0.18075465 20.875 -0.1875 C21.66896179 -0.20500809 22.46292358 -0.22251617 23.28094482 -0.24055481 C28.55556377 -0.2200857 31.53734367 0.72422321 35.703125 4.23828125 C37.92759921 6.53270748 38.63423769 7.63207296 38.99609375 10.81640625 C38.96128906 11.698125 38.92648438 12.57984375 38.890625 13.48828125 C38.85001953 14.82632813 38.85001953 14.82632813 38.80859375 16.19140625 C38.77378906 16.866875 38.73898438 17.54234375 38.703125 18.23828125 C39.63060547 18.2225708 40.55808594 18.20686035 41.51367188 18.19067383 C44.98768822 18.13924068 48.46129406 18.10178443 51.93554688 18.07348633 C53.43300807 18.05849237 54.93042605 18.0380902 56.42773438 18.01196289 C65.75410035 17.85341467 73.24946667 17.89171819 81.453125 22.92578125 C87.97615082 29.63000224 88.24423605 36.56798679 88.20117188 45.42773438 C88.19077881 46.16644775 88.18038574 46.90516113 88.16967773 47.66625977 C88.14055482 49.93123921 88.14912682 52.19389531 88.16210938 54.45898438 C88.11431323 65.58489908 88.11431323 65.58489908 86.20141602 68.62451172 C83.98012121 72.49956177 84.28130638 76.09295905 84.296875 80.484375 C84.28062073 81.81747459 84.28062073 81.81747459 84.26403809 83.17750549 C84.22984896 86.01033846 84.21419992 88.84276933 84.203125 91.67578125 C84.18852309 95.40403057 84.15478088 99.13138753 84.109375 102.859375 C84.11239624 103.70954697 84.11541748 104.55971893 84.11853027 105.43565369 C84.03687528 111.93068224 82.78404259 115.90596846 78.35752869 120.86724854 C73.68567529 124.62588875 68.10842638 123.94316673 62.38305664 123.90112305 C61.1449675 123.91149094 59.90687836 123.92185883 58.63127136 123.93254089 C55.24644028 123.95496029 51.86314259 123.9549053 48.47835851 123.94284034 C45.64787973 123.93569369 42.81753631 123.9442187 39.98706812 123.95274574 C33.30709065 123.97267921 26.62747122 123.96715071 19.94750977 123.94506836 C13.06711451 123.9227092 6.18765775 123.94030071 -0.69264883 123.97811764 C-6.61052482 124.00939635 -12.52811096 124.01725411 -18.44605929 124.0061639 C-21.97593365 123.99969016 -25.50526678 124.00161379 -29.03507805 124.0254879 C-32.97289337 124.0507669 -36.90960023 124.02707045 -40.84741211 123.9987793 C-42.00971344 124.01249573 -43.17201477 124.02621216 -44.36953735 124.04034424 C-50.72976361 123.94904543 -54.49441392 123.34040439 -59.06480408 118.74815845 C-62.96434169 113.96935648 -62.59072929 108.84809963 -62.60546875 102.95703125 C-62.63062021 101.12760086 -62.65601836 99.29817385 -62.68164062 97.46875 C-62.71040727 94.59847833 -62.73444037 91.72826506 -62.75317383 88.85791016 C-62.77484232 86.07815164 -62.8142709 83.29905892 -62.85546875 80.51953125 C-62.85558456 79.664198 -62.85570038 78.80886475 -62.8558197 77.9276123 C-62.9377368 72.98797092 -63.63361896 70.47252013 -66.296875 66.23828125 C-66.84049656 61.56970525 -66.76983382 56.89713018 -66.74291992 52.20141602 C-66.7344381 49.94258618 -66.7631456 47.68631295 -66.79492188 45.42773438 C-66.83798605 36.56798679 -66.56990082 29.63000224 -60.046875 22.92578125 C-51.20032973 17.49721938 -42.81109636 17.87603792 -32.796875 18.05078125 C-31.29168003 18.06585265 -29.78647049 18.07953672 -28.28125 18.09179688 C-24.61948559 18.12461438 -20.95827479 18.17626136 -17.296875 18.23828125 C-17.48507813 17.32304688 -17.67328125 16.4078125 -17.8671875 15.46484375 C-18.4397404 11.16549194 -17.38565354 8.99808262 -15.296875 5.23828125 C-10.20875407 0.52246186 -6.74223702 0.06209576 0 0 Z M-6.20507812 12.51098633 C-7.65307408 14.46124166 -7.65307408 14.46124166 -7.296875 18.23828125 C4.583125 18.23828125 16.463125 18.23828125 28.703125 18.23828125 C28.208125 15.76328125 28.208125 15.76328125 27.703125 13.23828125 C22.95404272 10.07222639 17.83826904 10.9044291 12.25146484 10.92260742 C10.21007046 10.92577049 8.17012181 10.90228998 6.12890625 10.87695312 C4.84371094 10.87630859 3.55851562 10.87566406 2.234375 10.875 C1.05423828 10.87201904 -0.12589844 10.86903809 -1.34179688 10.8659668 C-4.26317991 11.01062547 -4.26317991 11.01062547 -6.20507812 12.51098633 Z M0.703125 62.23828125 C0.6825 65.02265625 0.661875 67.80703125 0.640625 70.67578125 C0.631521 71.55419678 0.62241699 72.4326123 0.61303711 73.33764648 C0.60589409 75.30474099 0.65280607 77.27181746 0.703125 79.23828125 C2.2252209 80.76037715 3.58522582 80.36787646 5.703125 80.37109375 C6.5075 80.37238281 7.311875 80.37367187 8.140625 80.375 C9.4090625 80.36919922 9.4090625 80.36919922 10.703125 80.36328125 C11.54875 80.36714844 12.394375 80.37101562 13.265625 80.375 C14.07 80.37371094 14.874375 80.37242188 15.703125 80.37109375 C16.816875 80.36940186 16.816875 80.36940186 17.953125 80.36767578 C19.73138311 80.42770341 19.73138311 80.42770341 20.703125 79.23828125 C20.77642831 76.373588 20.79530331 73.53934451 20.765625 70.67578125 C20.745 67.89140625 20.724375 65.10703125 20.703125 62.23828125 C14.103125 62.23828125 7.503125 62.23828125 0.703125 62.23828125 Z " fill="#2749A3" transform="translate(109.296875,35.76171875)"/>
<path d="M0 0 C10.89 0 21.78 0 33 0 C33 17.16 33 34.32 33 52 C50.16 52 67.32 52 85 52 C85 34.84 85 17.68 85 0 C95.56 0 106.12 0 117 0 C117 45.54 117 91.08 117 138 C106.44 138 95.88 138 85 138 C85 119.85 85 101.7 85 83 C67.84 83 50.68 83 33 83 C33 101.15 33 119.3 33 138 C22.11 138 11.22 138 0 138 C0 92.46 0 46.92 0 0 Z " fill="#000000" transform="translate(576,27)"/>
<path d="M0 0 C0 0.66 0 1.32 0 2 C0.99 2.33 1.98 2.66 3 3 C11.36552845 12.46625588 14.13720689 25.51521267 14.11352539 37.85327148 C14.11367142 38.49802933 14.11381744 39.14278717 14.1139679 39.80708313 C14.11327817 41.91178907 14.10553042 44.01640351 14.09765625 46.12109375 C14.09578872 47.59082491 14.0943664 49.06055669 14.09336853 50.5302887 C14.0895697 54.37879181 14.07976221 58.22725656 14.06866455 62.07574463 C14.05658429 66.70391802 14.05203564 71.33210432 14.04621124 75.960289 C14.03654881 82.9735526 14.01737391 89.98673218 14 97 C3.77 97 -6.46 97 -17 97 C-17.03738281 92.78476563 -17.07476563 88.56953125 -17.11328125 84.2265625 C-17.15145441 80.84097807 -17.19252659 77.45545607 -17.2355423 74.06993103 C-17.2799901 70.50969643 -17.3194674 66.94957372 -17.34643555 63.38916016 C-17.37769957 59.2930094 -17.43247871 55.19745305 -17.48828125 51.1015625 C-17.49467117 49.8407486 -17.5010611 48.57993469 -17.50764465 47.28091431 C-17.64777549 38.78216238 -18.21685305 28.78024125 -24 22 C-29.35263006 18.16584655 -34.52463776 17.09276886 -41 18 C-46.4819345 19.12244363 -50.28845772 21.34699038 -53.65312195 25.8611145 C-58.60655577 33.72732612 -58.46533524 42.88952862 -58.51171875 51.8828125 C-58.52966995 53.17822968 -58.54762115 54.47364685 -58.56611633 55.80831909 C-58.61320323 59.21776373 -58.64327736 62.62714418 -58.66955566 66.0368042 C-58.69957239 69.52987257 -58.74587274 73.02272477 -58.79101562 76.515625 C-58.87808857 83.34376413 -58.93838533 90.17139467 -59 97 C-69.56 97 -80.12 97 -91 97 C-90.67 62.68 -90.34 28.36 -90 -7 C-82.08 -7 -74.16 -7 -66 -7 C-65.01 -3.7 -64.02 -0.4 -63 3 C-61.948125 1.948125 -60.89625 0.89625 -59.8125 -0.1875 C-43.92457121 -14.10002023 -15.92064613 -13.44410118 0 0 Z " fill="#000000" transform="translate(942,68)"/>
<path d="M0 0 C10.23 0 20.46 0 31 0 C31.02578125 4.43179688 31.0515625 8.86359375 31.078125 13.4296875 C31.10985185 16.98732546 31.14550491 20.54487642 31.18379211 24.10244751 C31.22299908 27.84468336 31.25546057 31.58668622 31.27099609 35.32910156 C31.28625975 38.94096111 31.32087336 42.55218599 31.36830902 46.16376114 C31.38302376 47.53423639 31.39103526 48.90480231 31.39188385 50.27535629 C31.40339795 59.55623576 31.66432854 68.66432854 38.5625 75.5625 C44.32321232 78.95984316 50.50227248 78.4326477 57 78 C61.98133744 76.39885582 65.39346988 73.54120485 68 69 C71.10366294 60.86725105 71.46629137 52.8539826 71.51171875 44.23828125 C71.53864555 42.33057198 71.53864555 42.33057198 71.56611633 40.38432312 C71.61077383 37.04218194 71.64325018 33.70039571 71.66955566 30.35809326 C71.69961038 26.93195824 71.74589809 23.50604244 71.79101562 20.08007812 C71.87799509 13.38670509 71.93835456 6.69384501 72 0 C82.23 0 92.46 0 103 0 C103 34.32 103 68.64 103 104 C95.41 104 87.82 104 80 104 C78.68 100.7 77.36 97.4 76 94 C75.01 94.9075 74.02 95.815 73 96.75 C63.64205125 104.64112742 51.77252629 107.67911784 39.5625 106.8125 C27.83699065 105.33700083 18.1760084 101.82058998 10 93 C0.92763268 81.12648701 -0.59830523 67.84729237 -0.390625 53.41796875 C-0.38314313 51.86713906 -0.37745944 50.31629977 -0.37347412 48.76545715 C-0.35837041 44.72936831 -0.31922558 40.69387665 -0.2746582 36.65802002 C-0.22608258 31.79119962 -0.20809853 26.92417692 -0.18484497 22.05718231 C-0.14636076 14.70437583 -0.06960385 7.35287359 0 0 Z " fill="#000000" transform="translate(721,61)"/>
<path d="M0 0 C0.53892883 0.32342377 1.07785767 0.64684753 1.63311768 0.98007202 C4.5216843 2.22480222 6.72656329 2.27854568 9.87011719 2.31884766 C11.64150055 2.34865219 11.64150055 2.34865219 13.44866943 2.37905884 C15.35353119 2.39638565 15.35353119 2.39638565 17.296875 2.4140625 C18.60078186 2.43342865 19.90468872 2.4527948 21.24810791 2.4727478 C24.70693936 2.52401083 28.16580966 2.56366744 31.62481689 2.60089111 C35.15752732 2.64096753 38.69007693 2.69204322 42.22265625 2.7421875 C49.14831991 2.83887755 56.07408685 2.92330435 63 3 C63.495 5.475 63.495 5.475 64 8 C69.94 8 75.88 8 82 8 C82.33 6.35 82.66 4.7 83 3 C84.07328804 2.98786972 84.07328804 2.98786972 85.16825867 2.97549438 C91.92156119 2.89745405 98.67467315 2.81013509 105.42772198 2.71247292 C108.89928401 2.66259258 112.37081683 2.6162622 115.8425293 2.578125 C119.83661816 2.53409219 123.83034381 2.47447508 127.82421875 2.4140625 C129.06709152 2.40251129 130.30996429 2.39096008 131.59049988 2.37905884 C132.75132584 2.35918915 133.91215179 2.33931946 135.1081543 2.31884766 C136.12741501 2.30552399 137.14667572 2.29220032 138.19682312 2.2784729 C141.1284987 1.9872347 143.33462611 1.22540005 146 0 C146.07434992 5.72913803 146.12869672 11.45799301 146.16479492 17.1875 C146.17984899 19.13514094 146.2002968 21.08274816 146.22631836 23.03027344 C146.26285053 25.83537128 146.27976033 28.64001954 146.29296875 31.4453125 C146.30845261 32.31116974 146.32393646 33.17702698 146.33988953 34.06912231 C146.34170602 40.64587982 145.13814145 44.60462797 140.65396118 49.62828064 C135.98251556 53.38790192 130.40548885 52.70488686 124.67993164 52.6628418 C122.82279793 52.67839363 122.82279793 52.67839363 120.92814636 52.69425964 C117.54331528 52.71667904 114.16001759 52.71662405 110.77523351 52.70455909 C107.94475473 52.69741244 105.11441131 52.70593745 102.28394312 52.71446449 C95.60396565 52.73439796 88.92434622 52.72886946 82.24438477 52.70678711 C75.36398951 52.68442795 68.48453275 52.70201946 61.60422617 52.73983639 C55.68635018 52.7711151 49.76876404 52.77897286 43.85081571 52.76788265 C40.32094135 52.76140891 36.79160822 52.76333254 33.26179695 52.78720665 C29.32398163 52.81248565 25.38727477 52.7887892 21.44946289 52.76049805 C20.28716156 52.77421448 19.12486023 52.78793091 17.92733765 52.80206299 C11.56677446 52.71075934 7.80255301 52.10229044 3.23276234 47.50880432 C-0.72325983 42.66694376 -0.26600751 37.50821359 -0.1953125 31.54296875 C-0.1924826 30.64000565 -0.18965271 29.73704254 -0.18673706 28.80671692 C-0.17557607 25.93350766 -0.15047897 23.06061445 -0.125 20.1875 C-0.11496493 18.23503056 -0.10584 16.28255621 -0.09765625 14.33007812 C-0.07565008 9.55326434 -0.04114831 4.77668569 0 0 Z " fill="#6CCDF0" transform="translate(47,107)"/>
<path d="M0 0 C5.94 0 11.88 0 18 0 C18.33 18.15 18.66 36.3 19 55 C21.31 53.02 23.62 51.04 26 49 C39.24017402 40.91070308 53.0068021 39.27007206 68.22265625 41.46484375 C81.17048029 44.61330744 92.40186552 52.26735052 99.8125 63.3125 C108.88868554 78.49563173 110.1836948 95.64758804 106.03125 112.71875 C101.61312613 126.77641687 91.87673213 137.16161711 79 144 C66.80437482 149.69830073 50.56566635 149.83016565 37.74609375 146.04296875 C29.91319916 143.0680287 23.54672341 139.29628063 18 133 C17.690625 134.03125 17.38125 135.0625 17.0625 136.125 C16.80146484 136.99511719 16.80146484 136.99511719 16.53515625 137.8828125 C15.86033588 140.5525398 15.45270438 143.28377373 15 146 C10.05 146 5.1 146 0 146 C0 97.82 0 49.64 0 0 Z M24.75 70.375 C17.95786801 80.56319798 15.67784102 90.88157026 17.75 103 C19.59485458 111.32093031 23.49749422 118.38840693 30 124 C40.71037488 130.5483857 51.84574178 133.04512635 64.3125 130.25 C71.11331197 127.94464001 76.1780477 125.47356748 81 120 C81.845625 119.13375 82.69125 118.2675 83.5625 117.375 C90.36737438 108.8258382 91.00653596 98.4240275 90.23632812 87.93847656 C89.12178568 78.7964652 83.50692448 70.90666637 77.0703125 64.609375 C73.44868118 61.79406914 69.32504814 60.40639677 65 59 C64.01 58.67 63.02 58.34 62 58 C47.23035221 56.96680216 35.31666136 59.2213019 24.75 70.375 Z " fill="#000000" transform="translate(443,19)"/>
<path d="M0 0 C1.00023193 0.00523682 2.00046387 0.01047363 3.03100586 0.01586914 C4.00303955 0.0183667 4.97507324 0.02086426 5.9765625 0.0234375 C7.84235962 0.03709351 7.84235962 0.03709351 9.74584961 0.05102539 C13.68522461 0.07165039 17.62459961 0.09227539 21.68334961 0.11352539 C21.68334961 8.69352539 21.68334961 17.27352539 21.68334961 26.11352539 C30.92334961 26.11352539 40.16334961 26.11352539 49.68334961 26.11352539 C49.68334961 34.69352539 49.68334961 43.27352539 49.68334961 52.11352539 C40.44334961 52.11352539 31.20334961 52.11352539 21.68334961 52.11352539 C21.75762798 57.37960579 21.84070493 62.64407357 21.94580078 67.90942383 C21.97889996 69.6977481 22.00697787 71.48617307 22.02978516 73.2746582 C22.06360916 75.85679738 22.11593584 78.43802615 22.17163086 81.01977539 C22.17802078 81.80968872 22.18441071 82.59960205 22.19099426 83.41345215 C22.33399505 88.90532271 23.40075104 93.096704 25.68334961 98.11352539 C30.84866343 102.32733404 37.07659053 102.30089665 43.49584961 102.67602539 C45.86772461 102.82040039 48.23959961 102.96477539 50.68334961 103.11352539 C50.68334961 112.02352539 50.68334961 120.93352539 50.68334961 130.11352539 C44.83616211 130.17540039 44.83616211 130.17540039 38.87084961 130.23852539 C37.063302 130.2658374 37.063302 130.2658374 35.21923828 130.29370117 C22.01355898 130.36048901 10.235157 128.64066487 0.30834961 119.30102539 C-8.27839551 110.0564248 -9.64326233 99.37970053 -9.51196289 87.17211914 C-9.509133 86.1638356 -9.5063031 85.15555206 -9.50338745 84.11671448 C-9.49228216 80.92802556 -9.46719584 77.73962798 -9.44165039 74.55102539 C-9.43160811 72.37589927 -9.42248445 70.2007687 -9.41430664 68.02563477 C-9.39408462 62.7213985 -9.35491759 57.4177842 -9.31665039 52.11352539 C-15.91665039 52.11352539 -22.51665039 52.11352539 -29.31665039 52.11352539 C-29.31665039 43.53352539 -29.31665039 34.95352539 -29.31665039 26.11352539 C-21.62915039 25.73852539 -21.62915039 25.73852539 -19.23583984 25.63549805 C-15.26453367 25.41355882 -11.86120158 25.09157081 -8.31665039 23.11352539 C-5.16971802 17.05276674 -4.55969597 10.72047261 -3.74633789 3.99243164 C-3.1736649 0.15552262 -3.1736649 0.15552262 0 0 Z " fill="#000000" transform="translate(1000.316650390625,34.886474609375)"/>
<path d="M0 0 C0.82814209 0.00491455 1.65628418 0.0098291 2.50952148 0.01489258 C16.17247384 0.27444209 29.61375659 4.7171187 39.6875 14.3125 C39.6875 14.9725 39.6875 15.6325 39.6875 16.3125 C40.3475 16.3125 41.0075 16.3125 41.6875 16.3125 C53.01146539 30.95431513 55.98359263 45.14581554 54.6875 63.3125 C52.70977873 76.8573978 45.70804569 88.4801263 35.125 96.875 C24.28595693 104.80046552 14.07162284 107.49014442 0.875 107.5 C0.02357422 107.51224609 -0.82785156 107.52449219 -1.70507812 107.53710938 C-16.97963197 107.57200935 -30.04168191 101.5657328 -40.96875 90.9921875 C-44.62563842 86.81114507 -47.07698601 82.37302997 -49.3125 77.3125 C-49.62703125 76.63574219 -49.9415625 75.95898438 -50.265625 75.26171875 C-56.69708766 60.03428511 -54.76881287 44.48544289 -49.25 29.41015625 C-43.53019602 16.83850375 -33.14604848 8.7372005 -20.84375 3.171875 C-13.94418397 0.82942974 -7.26606509 -0.05154297 0 0 Z M-28.03125 29.16015625 C-31.8194657 33.83043198 -33.81455314 38.52192929 -35.3125 44.3125 C-35.539375 45.158125 -35.76625 46.00375 -36 46.875 C-37.51393342 58.68368071 -34.51998743 69.81557538 -27.3125 79.3125 C-21.06933345 86.2593328 -12.52739991 89.97032241 -3.26171875 90.48046875 C8.43042209 90.55048157 18.90158176 88.62350374 27.6875 80.3125 C36.24700539 70.09219506 37.38336283 59.27963624 36.6875 46.3125 C35.42690838 37.22363439 30.40415578 29.0047571 23.1875 23.35546875 C6.75832561 13.06219028 -14.66567936 14.79216781 -28.03125 29.16015625 Z " fill="#000000" transform="translate(361.3125,59.6875)"/>
<path d="M0 0 C5.94 0 11.88 0 18 0 C18.06968998 14.7695866 18.1231076 29.53913779 18.15543652 44.30885601 C18.17085184 51.16795668 18.19183812 58.0269528 18.22631836 64.88598633 C18.25961383 71.51254337 18.27688296 78.13902082 18.28463173 84.76566505 C18.2901498 87.2864534 18.30092489 89.80723622 18.31719017 92.32797813 C18.52034944 125.135084 18.52034944 125.135084 10.60546875 134.41796875 C3.8493491 141.07545891 -2.93955563 142.23104815 -12.05859375 142.17578125 C-13.15300781 142.15902344 -14.24742187 142.14226562 -15.375 142.125 C-16.49261719 142.11597656 -17.61023438 142.10695312 -18.76171875 142.09765625 C-21.50790512 142.07418457 -24.25398063 142.03831655 -27 142 C-27 136.72 -27 131.44 -27 126 C-19.4375 125.6875 -19.4375 125.6875 -17.09936523 125.61206055 C-12.20863215 125.35590007 -8.21267518 124.6921546 -4 122 C-0.57604567 115.63502277 -0.55775465 108.65145112 -0.56762695 101.60522461 C-0.5574353 100.5017569 -0.54724365 99.39828918 -0.53674316 98.26138306 C-0.5067323 94.64165084 -0.4973652 91.02218378 -0.48828125 87.40234375 C-0.47142579 84.88171009 -0.45327439 82.36108479 -0.43388367 79.84046936 C-0.39130879 73.90153543 -0.36173006 67.96262836 -0.33856028 62.02359539 C-0.31142757 55.25680864 -0.26752141 48.49016236 -0.22227156 41.72347629 C-0.12964072 27.81572471 -0.05845672 13.90793345 0 0 Z " fill="#000000" transform="translate(263,62)"/>
<path d="M0 0 C0.82638977 -0.00807175 1.65277954 -0.01614349 2.50421143 -0.02445984 C4.25604148 -0.03830246 6.00789852 -0.04902382 7.75976562 -0.05688477 C10.42891196 -0.07406292 13.09680831 -0.11794164 15.765625 -0.16210938 C17.4687409 -0.17223957 19.17186733 -0.18075465 20.875 -0.1875 C21.66896179 -0.20500809 22.46292358 -0.22251617 23.28094482 -0.24055481 C28.56481123 -0.22004981 31.48063978 0.79082949 35.703125 4.23828125 C37.89861603 6.51218268 38.62589456 7.63974532 39.03125 10.78125 C38.99257812 12.09029297 38.99257812 12.09029297 38.953125 13.42578125 C38.93765625 14.30621094 38.9221875 15.18664063 38.90625 16.09375 C38.703125 18.23828125 38.703125 18.23828125 37.703125 19.23828125 C35.03253649 19.37943286 32.37880262 19.28075232 29.703125 19.23828125 C29.249375 18.26890625 28.795625 17.29953125 28.328125 16.30078125 C27.04526279 13.16748543 27.04526279 13.16748543 24.703125 12.23828125 C20.58114094 11.95850056 16.45759411 11.92479529 12.3269043 11.88818359 C10.95433625 11.87160158 9.58185535 11.84428088 8.2097168 11.80615234 C6.23017674 11.75144921 4.24974689 11.73265678 2.26953125 11.71484375 C0.48977905 11.68511475 0.48977905 11.68511475 -1.32592773 11.65478516 C-4.48600914 11.93545996 -4.48600914 11.93545996 -6.14477539 14.64599609 C-6.52496826 15.5014502 -6.90516113 16.3569043 -7.296875 17.23828125 C-7.626875 17.89828125 -7.956875 18.55828125 -8.296875 19.23828125 C-11.266875 19.23828125 -14.236875 19.23828125 -17.296875 19.23828125 C-18.57344627 13.55173651 -18.17720255 10.32685992 -15.296875 5.23828125 C-10.20875407 0.52246186 -6.74223702 0.06209576 0 0 Z " fill="#6ECBEC" transform="translate(109.296875,35.76171875)"/>
<path d="M0 0 C3.77603377 3.04180499 5.87358293 5.45739856 7.1875 10.1875 C7.26312805 14.5739267 6.40558434 17.00430101 4.25 20.8125 C0.64306697 24.23908638 -2.01850522 25.64601012 -7 26.125 C-12.48248444 25.6681263 -15.90966007 23.83093734 -19.6875 19.6875 C-21.2901363 15.35095472 -21.53037812 11.3707834 -20.75 6.8125 C-19.06483286 3.42136119 -16.69760037 1.37593806 -13.4375 -0.5625 C-8.68064677 -1.66874494 -4.53950721 -1.96024175 0 0 Z " fill="#000000" transform="translate(278.75,21.1875)"/>
<path d="M0 0 C1.32 0.99 2.64 1.98 4 3 C3.34 3 2.68 3 2 3 C2.01950671 8.26604574 2.07148486 13.53044042 2.15258789 18.79589844 C2.17567653 20.58421821 2.19014204 22.3726722 2.19555664 24.16113281 C2.2049137 26.74368038 2.24604721 29.32414358 2.29296875 31.90625 C2.28706978 33.09112 2.28706978 33.09112 2.28105164 34.29992676 C2.40934652 39.26491558 3.26949904 43.38435711 6.20814514 47.47328186 C10.1277523 50.81291359 15.1011533 50.04753714 20 50 C21.69682251 50.02744279 23.39356394 50.06018465 25.09020996 50.09695435 C31.36716366 50.22204409 37.6439315 50.2692574 43.921875 50.31640625 C46.23643334 50.33700927 48.55098819 50.35800654 50.86553955 50.37937927 C56.92180543 50.43425452 62.9781033 50.48381441 69.03442383 50.53222656 C75.22870693 50.58269579 81.42294427 50.63824841 87.6171875 50.69335938 C99.74475247 50.8005176 111.87235737 50.90205443 124 51 C124 51.33 124 51.66 124 52 C109.12691371 52.14032019 94.25387882 52.24604419 79.38027096 52.31087303 C72.47374752 52.34177792 65.56763597 52.38389259 58.66137695 52.45263672 C51.99588423 52.51895251 45.33090768 52.55371063 38.66507149 52.56926346 C36.12252634 52.58034633 33.58000449 52.60198877 31.03764153 52.63438034 C27.47501998 52.6779639 23.91416378 52.68393285 20.35131836 52.68115234 C19.30115036 52.702724 18.25098236 52.72429565 17.16899109 52.746521 C11.05644162 52.69493112 7.67464339 51.86100154 3.27136898 47.51159382 C-0.75702539 42.72203538 -0.26586218 37.49595086 -0.1953125 31.54296875 C-0.1924826 30.64000565 -0.18965271 29.73704254 -0.18673706 28.80671692 C-0.17557607 25.93350766 -0.15047897 23.06061445 -0.125 20.1875 C-0.11496493 18.23503056 -0.10584 16.28255621 -0.09765625 14.33007812 C-0.07565008 9.55326434 -0.04114831 4.77668569 0 0 Z M5 43 C8 44 8 44 8 44 Z " fill="#86CAE5" transform="translate(47,107)"/>
<path d="M0 0 C18.15 0 36.3 0 55 0 C55 0.33 55 0.66 55 1 C37.51 1 20.02 1 2 1 C1.67 2.65 1.34 4.3 1 6 C0.01 7.485 0.01 7.485 -1 9 C-1.7425 8.855625 -2.485 8.71125 -3.25 8.5625 C-8.47930517 7.77810422 -13.72927776 7.40084781 -19 7 C-19 6.67 -19 6.34 -19 6 C-13.06 5.67 -7.12 5.34 -1 5 C-0.67 3.35 -0.34 1.7 0 0 Z " fill="#68B8E8" transform="translate(130,110)"/>
<path d="M0 0 C0.0494009 5.78408559 0.08572 11.56804864 0.10986328 17.35229492 C0.11992707 19.32041564 0.13357934 21.28852138 0.15087891 23.2565918 C0.17511059 26.08385918 0.18647923 28.91092905 0.1953125 31.73828125 C0.20563507 32.61962234 0.21595764 33.50096344 0.22659302 34.40901184 C0.22674408 35.22963608 0.22689514 36.05026031 0.22705078 36.89575195 C0.231492 37.61745071 0.23593323 38.33914948 0.24050903 39.0827179 C0 41 0 41 -2 44 C-2 30.47 -2 16.94 -2 3 C-2.99 2.67 -3.98 2.34 -5 2 C-1.125 0 -1.125 0 0 0 Z " fill="#7AC0DF" transform="translate(193,107)"/>
<path d="M0 0 C0.33 0.99 0.66 1.98 1 3 C-0.375 5 -0.375 5 -2 7 C-3.17293615 10.51880846 -3.22929184 13.47633357 -3.3515625 17.1875 C-3.37471527 17.88641357 -3.39786804 18.58532715 -3.42172241 19.30541992 C-3.46928163 20.78134164 -3.51452527 22.25733954 -3.55761719 23.73339844 C-3.62475744 25.99184081 -3.70253749 28.24974729 -3.78125 30.5078125 C-3.82616496 31.94268832 -3.87045676 33.3775838 -3.9140625 34.8125 C-3.9548291 36.11832031 -3.9955957 37.42414063 -4.03759766 38.76953125 C-4.1641386 42.01619403 -4.1641386 42.01619403 -3 45 C-3.99 45.495 -3.99 45.495 -5 46 C-6.79728918 40.60813245 -6.26556358 34.76203778 -6.29516602 29.11401367 C-6.3066553 27.58852846 -6.32705882 26.06308248 -6.35668945 24.5378418 C-6.66212191 8.80721697 -6.66212191 8.80721697 -2 2 C-1.34 1.34 -0.68 0.68 0 0 Z " fill="#2D4687" transform="translate(49,59)"/>
<path d="M0 0 C2.39028321 3.58542481 2.30624779 6.19338566 2.30078125 10.3359375 C2.30506638 11.05230377 2.3093515 11.76867004 2.31376648 12.50674438 C2.31950519 14.0214126 2.3200134 15.53610838 2.31567383 17.05078125 C2.31252068 19.35985807 2.33595269 21.6676447 2.36132812 23.9765625 C2.36360198 25.45051922 2.36430421 26.92447938 2.36328125 28.3984375 C2.372491 29.08505463 2.38170074 29.77167175 2.39118958 30.47909546 C2.34958294 34.82508828 1.56207362 37.48821044 -1 41 C-1.495 39.515 -1.495 39.515 -2 38 C-1.505 37.505 -1.505 37.505 -1 37 C-0.92380607 34.34540331 -0.90923301 31.71657851 -0.9375 29.0625 C-0.94128662 28.267229 -0.94507324 27.47195801 -0.94897461 26.65258789 C-0.96123743 24.10167157 -0.97986915 21.55086567 -1 19 C-1.02647029 15.64583647 -1.0465291 12.29172809 -1.0625 8.9375 C-1.07079834 8.15834229 -1.07909668 7.37918457 -1.08764648 6.57641602 C-1.09620568 4.7174008 -1.05333725 2.85826962 -1 1 C-0.67 0.67 -0.34 0.34 0 0 Z " fill="#2C4689" transform="translate(195,66)"/>
<path d="M0 0 C2.83392926 -0.08174796 5.66544819 -0.14084985 8.5 -0.1875 C9.29148438 -0.21263672 10.08296875 -0.23777344 10.8984375 -0.26367188 C18.69331616 -0.35951055 25.23602512 1.40555379 31 7 C32.3125 9.25 32.3125 9.25 33 11 C31.3125 10.875 31.3125 10.875 29 10 C27.81069548 8.45711847 26.62167181 6.91401192 25.4375 5.3671875 C22.9957875 3.04490659 20.23089299 3.12670169 17 3 C17 2.34 17 1.68 17 1 C11.39 1 5.78 1 0 1 C0 0.67 0 0.34 0 0 Z " fill="#2F4A91" transform="translate(162,54)"/>
<path d="M0 0 C0.66 0.33 1.32 0.66 2 1 C2.09765625 7.15234375 2.09765625 7.15234375 2 9 C1 10 1 10 -2.0625 10.0625 C-3.031875 10.041875 -4.00125 10.02125 -5 10 C-5 9.01 -5 8.02 -5 7 C-3.68 6.67 -2.36 6.34 -1 6 C-0.67 4.02 -0.34 2.04 0 0 Z " fill="#6ACEF1" transform="translate(145,44)"/>
<path d="M0 0 C1.32 0.66 2.64 1.32 4 2 C-0.06153846 7.78461538 -0.06153846 7.78461538 -4.8125 8.875 C-5.864375 8.91625 -6.91625 8.9575 -8 9 C-8.33 8.34 -8.66 7.68 -9 7 C-6.69 7 -4.38 7 -2 7 C-1.34 4.69 -0.68 2.38 0 0 Z " fill="#7ACAE5" transform="translate(187,150)"/>
<path d="M0 0 C1.2077558 3.62326739 0.54311128 4.64146369 -1 8 C-2.36125 7.7834375 -2.36125 7.7834375 -3.75 7.5625 C-9.14026126 6.78452415 -14.57239588 6.41887914 -20 6 C-20 5.67 -20 5.34 -20 5 C-14.06 4.67 -8.12 4.34 -2 4 C-1.34 2.68 -0.68 1.36 0 0 Z " fill="#72C3E4" transform="translate(131,111)"/>
<path d="M0 0 C4.40938215 0.50392939 6.78843816 1.9620361 10 5 C11.3125 7.25 11.3125 7.25 12 9 C8.5176374 8.74204721 7.81191289 7.78438795 5.4375 5.0625 C4.633125 4.051875 3.82875 3.04125 3 2 C2.01 1.34 1.02 0.68 0 0 Z " fill="#2A4286" transform="translate(183,56)"/>
<path d="M0 0 C0.66 0.33 1.32 0.66 2 1 C1.01 2.98 0.02 4.96 -1 7 C-3.97 7 -6.94 7 -10 7 C-10 6.01 -10 5.02 -10 4 C-7.69 4.66 -5.38 5.32 -3 6 C-2.690625 5.195625 -2.38125 4.39125 -2.0625 3.5625 C-1 1 -1 1 0 0 Z " fill="#6DB9E1" transform="translate(102,48)"/>
<path d="M0 0 C0.33 0.99 0.66 1.98 1 3 C0.04422943 4.36538653 -0.96352976 5.69481525 -2 7 C-2.71162443 8.64797236 -3.39031953 10.31165408 -4 12 C-4.33 12 -4.66 12 -5 12 C-4.58525633 6.71201818 -3.64775386 3.88309282 0 0 Z " fill="#2D448B" transform="translate(49,59)"/>
<path d="M0 0 C0 2 0 2 -1.25 3.3125 C-1.8275 3.869375 -2.405 4.42625 -3 5 C-4.34736973 6.65533995 -5.68334336 8.32012773 -7 10 C-6.67506385 6.4257023 -6.36129314 4.44287547 -4.0625 1.625 C-2 0 -2 0 0 0 Z " fill="#7FC6DF" transform="translate(99,38)"/>
<path d="" fill="#FFFFFF" transform="translate(0,0)"/>
<path d="" fill="#FFFFFF" transform="translate(0,0)"/>
<path d="" fill="#FFFFFF" transform="translate(0,0)"/>
<path d="" fill="#FFFFFF" transform="translate(0,0)"/>
<path d="" fill="#FFFFFF" transform="translate(0,0)"/>
<path d="" fill="#FFFFFF" transform="translate(0,0)"/>
<path d="" fill="#FFFFFF" transform="translate(0,0)"/>
<path d="" fill="#FFFFFF" transform="translate(0,0)"/>
<path d="" fill="#FFFFFF" transform="translate(0,0)"/>
<path d="" fill="#FFFFFF" transform="translate(0,0)"/>
<path d="" fill="#FFFFFF" transform="translate(0,0)"/>
<path d="" fill="#FFFFFF" transform="translate(0,0)"/>
<path d="" fill="#FFFFFF" transform="translate(0,0)"/>
<path d="" fill="#FFFFFF" transform="translate(0,0)"/>
<path d="" fill="#FFFFFF" transform="translate(0,0)"/>
<path d="" fill="#FFFFFF" transform="translate(0,0)"/>
<path d="" fill="#FFFFFF" transform="translate(0,0)"/>
<path d="" fill="#FFFFFF" transform="translate(0,0)"/>
<path d="" fill="#FFFFFF" transform="translate(0,0)"/>
<path d="" fill="#FFFFFF" transform="translate(0,0)"/>
<path d="" fill="#FFFFFF" transform="translate(0,0)"/>
<path d="" fill="#FFFFFF" transform="translate(0,0)"/>
<path d="" fill="#FFFFFF" transform="translate(0,0)"/>
<path d="" fill="#FFFFFF" transform="translate(0,0)"/>
<path d="" fill="#FFFFFF" transform="translate(0,0)"/>
<path d="" fill="#FFFFFF" transform="translate(0,0)"/>
<path d="" fill="#FFFFFF" transform="translate(0,0)"/>
<path d="" fill="#FFFFFF" transform="translate(0,0)"/>
<path d="" fill="#FFFFFF" transform="translate(0,0)"/>
<path d="" fill="#FFFFFF" transform="translate(0,0)"/>
<path d="" fill="#FFFFFF" transform="translate(0,0)"/>
<path d="" fill="#FFFFFF" transform="translate(0,0)"/>
<path d="" fill="#FFFFFF" transform="translate(0,0)"/>
<path d="" fill="#FFFFFF" transform="translate(0,0)"/>
<path d="" fill="#FFFFFF" transform="translate(0,0)"/>
<path d="" fill="#FFFFFF" transform="translate(0,0)"/>
<path d="" fill="#FFFFFF" transform="translate(0,0)"/>
<path d="" fill="#FFFFFF" transform="translate(0,0)"/>
<path d="" fill="#FFFFFF" transform="translate(0,0)"/>
<path d="" fill="#FFFFFF" transform="translate(0,0)"/>
<path d="" fill="#FFFFFF" transform="translate(0,0)"/>
<path d="" fill="#FFFFFF" transform="translate(0,0)"/>
<path d="" fill="#FFFFFF" transform="translate(0,0)"/>
<path d="" fill="#FFFFFF" transform="translate(0,0)"/>
<path d="" fill="#FFFFFF" transform="translate(0,0)"/>
<path d="" fill="#FFFFFF" transform="translate(0,0)"/>
<path d="" fill="#FFFFFF" transform="translate(0,0)"/>
<path d="" fill="#FFFFFF" transform="translate(0,0)"/>
<path d="" fill="#FFFFFF" transform="translate(0,0)"/>
<path d="" fill="#FFFFFF" transform="translate(0,0)"/>
<path d="" fill="#FFFFFF" transform="translate(0,0)"/>
<path d="" fill="#FFFFFF" transform="translate(0,0)"/>
<path d="" fill="#FFFFFF" transform="translate(0,0)"/>
<path d="" fill="#FFFFFF" transform="translate(0,0)"/>
<path d="" fill="#FFFFFF" transform="translate(0,0)"/>
<path d="" fill="#FFFFFF" transform="translate(0,0)"/>
<path d="" fill="#FFFFFF" transform="translate(0,0)"/>
<path d="" fill="#FFFFFF" transform="translate(0,0)"/>
<path d="" fill="#FFFFFF" transform="translate(0,0)"/>
<path d="" fill="#FFFFFF" transform="translate(0,0)"/>
<path d="" fill="#FFFFFF" transform="translate(0,0)"/>
<path d="" fill="#FFFFFF" transform="translate(0,0)"/>
</svg>
