<?xml version="1.0" encoding="UTF-8"?>
<svg version="1.1" xmlns="http://www.w3.org/2000/svg" width="1080" height="1080">
    <path
        d="M0 0 C356.4 0 712.8 0 1080 0 C1080 356.4 1080 712.8 1080 1080 C723.6 1080 367.2 1080 0 1080 C0 723.6 0 367.2 0 0 Z "
        fill="#0CC0DF" transform="translate(0,0)" rx='50' ry="50" />
    <path
        d="M0 0 C38.94 0 77.88 0 118 0 C118 44.22 118 88.44 118 134 C160.57 134 203.14 134 247 134 C247 89.78 247 45.56 247 0 C285.94 0 324.88 0 365 0 C365 121.44 365 242.88 365 368 C326.06 368 287.12 368 247 368 C247 321.8 247 275.6 247 228 C204.43 228 161.86 228 118 228 C118 274.2 118 320.4 118 368 C79.06 368 40.12 368 0 368 C0 246.56 0 125.12 0 0 Z "
        fill="#FDFEFE" transform="translate(475,330)" />
    <path
        d="M0 0 C34.98 0 69.96 0 106 0 C106.08834906 39.4828571 106.16214107 78.9656202 106.20426132 118.44854802 C106.20926354 123.12056539 106.21444089 127.79258255 106.21972656 132.46459961 C106.2207758 133.39462889 106.22182505 134.32465818 106.22290608 135.28287017 C106.24026342 150.29880573 106.27177507 165.31467942 106.30861118 180.33057839 C106.34615114 195.76326495 106.3682633 211.19591932 106.37635398 226.62864965 C106.38181483 236.13477416 106.39899803 245.64072367 106.43166587 255.14679425 C106.45297537 261.68475283 106.45916333 268.22262228 106.45400551 274.76061297 C106.45146897 278.52045167 106.4550736 282.27998683 106.4768219 286.03977013 C106.63609323 315.03929125 105.44418369 347.49453851 84.26953125 369.72265625 C83.52058594 370.47417969 82.77164063 371.22570312 82 372 C81.38511719 372.63808594 80.77023437 373.27617188 80.13671875 373.93359375 C60.38402556 392.92494116 28.28757873 394.43837761 2.53125 394.21875 C-12.51973291 393.90937728 -27.42109016 391.85712346 -42.1875 389 C-42.98285156 388.8462793 -43.77820313 388.69255859 -44.59765625 388.53417969 C-45.71527344 388.30069824 -45.71527344 388.30069824 -46.85546875 388.0625 C-47.49121826 387.92972656 -48.12696777 387.79695313 -48.78198242 387.66015625 C-51.95064259 386.71705696 -54.96127768 385.30230957 -58 384 C-58 363.21 -58 342.42 -58 321 C-41.125 320.75 -41.125 320.75 -35.86376953 320.70214844 C-26.11285477 320.53411945 -17.75664911 319.68834192 -9.625 313.75 C-0.77312157 304.47660355 -0.70020207 291.76153273 -0.7215271 279.5917511 C-0.7157347 278.38995514 -0.7099423 277.18815917 -0.70397437 275.94994515 C-0.69000196 272.64547586 -0.68475113 269.34120911 -0.68332577 266.03672516 C-0.67960821 262.46153711 -0.66444122 258.8863946 -0.65071106 255.31123352 C-0.62850792 249.12741391 -0.61345302 242.94361066 -0.60334396 236.7597599 C-0.58871776 227.81911143 -0.56317003 218.87851998 -0.53501268 209.9379051 C-0.48961609 195.43005409 -0.45297189 180.92219483 -0.421875 166.41430664 C-0.39166018 152.32672683 -0.35729649 138.23916714 -0.31738281 124.15161133 C-0.31492126 123.28229858 -0.31245972 122.41298583 -0.30992357 121.51733027 C-0.2975484 117.15595824 -0.28509198 112.79458646 -0.27259517 108.43321478 C-0.16913423 72.28883369 -0.0815161 36.14443856 0 0 Z "
        fill="#FEFEFE" transform="translate(328,436)" />
    <path
        d="M0 0 C34.98 0 69.96 0 106 0 C106 23.76 106 47.52 106 72 C71.02 72 36.04 72 0 72 C0 48.24 0 24.48 0 0 Z "
        fill="#FEFEFE" transform="translate(328,331)" rx='50' ry="50" />
</svg>